# xmcd
#
# Track frame offsets: 
#        150
#        18345
#        46411
#        70218
#        83910
#        104457
#        124258
#        136747
#        139537
#        162514
#        182280
#        203704
#        226894
#
# Disc length: 3256 seconds
#
# Revision: 2
# Processed by: cddbd v1.5.2PL0 Copyright (c) Steve Scherf et al.
# Submitted via: ExactAudioCopyFreeDBPlugin 1.0
#
DISCID=a80cb60d
DTITLE=Dawn Tyler Watson - Ten Dollar Dress
DYEAR=2001
DGENRE=Blues
TTITLE0=Cigarette
TTITLE1=You Can't Be True
TTITLE2=Hey Hey
TTITLE3=Rollin' Joe
TTITLE4=Latex
TTITLE5=Shoot the Devil
TTITLE6=Take it Outside
TTITLE7=Interlude
TTITLE8=Abused
TTITLE9=Nobody Home
TTITLE10=Come-n'-get-it
TTITLE11=Movin' On
TTITLE12=Purple Haze
EXTD=
EXTT0=
EXTT1=
EXTT2=
EXTT3=
EXTT4=
EXTT5=
EXTT6=
EXTT7=
EXTT8=
EXTT9=
EXTT10=
EXTT11=
EXTT12=
PLAYORDER=
